<?xml version="1.0" encoding="utf-8"?>
<!-- Generator: Adobe Illustrator 19.1.0, SVG Export Plug-In . SVG Version: 6.00 Build 0)  -->
<svg version="1.1" id="Layer_1" xmlns="http://www.w3.org/2000/svg" xmlns:xlink="http://www.w3.org/1999/xlink" x="0px" y="0px"
	 viewBox="0 0 232.1 232.1" style="enable-background:new 0 0 232.1 232.1;" xml:space="preserve">
<style type="text/css">
	.st0{fill:#A4A4A4;}
	.st1{fill:#F2F2F2;}
	.st2{fill:#FFFFFF;}
	.st3{fill:#666666;}
	.st4{fill:#808080;}
	.st5{fill:#A3A3A3;}
</style>
<g>
	<path class="st0" d="M116,232.1c-64,0-116-52-116-116S52,0,116,0s116,52,116,116S180,232.1,116,232.1z"/>
	<circle class="st1" cx="116" cy="116" r="104.2"/>
	<path class="st2" d="M124.6,133.5c-0.1-0.5-0.1-1-0.1-1.5C124.5,132.5,124.6,133,124.6,133.5z"/>
	<g>
		<g>
			<path class="st3" d="M57.6,102.9V76h-6.3v-9.5h18.4v36.5H57.6z"/>
			<path class="st3" d="M87.2,75.7v3.8h1.6c8.8,0,14.5,4.3,14.5,10.9c0,7.9-6.1,12.9-15.4,12.9c-5.1,0-11-1.9-15-4.8l4.8-9.2
				c2.6,3.4,5.6,5.1,8.8,5.1c2.6,0,3.9-1.1,3.9-3.2c0-2-1.3-3-3.9-3H76.2V66.5h25.4v9.3H87.2z"/>
			<path class="st3" d="M138.7,84.7c0,12-6,18.6-16.7,18.6c-10.8,0-16.7-6.7-16.7-18.6c0-12,5.9-18.6,16.7-18.6
				C132.7,66.1,138.7,72.7,138.7,84.7z M117.6,84.7c0,7.4,1.1,9.9,4.4,9.9c3.2,0,4.3-2.5,4.3-9.9c0-7.4-1.1-9.8-4.3-9.8
				C118.7,74.8,117.6,77.3,117.6,84.7z"/>
			<path class="st3" d="M51.3,120.4l2-13h2.3l2,13h-1.9l-0.4-2.6h-1.8l-0.4,2.6H51.3z M54.5,111.7l-0.1-0.3h-0.1l-0.1,0.3l-0.5,4.1
				h1.3L54.5,111.7z"/>
			<path class="st3" d="M57.7,109.4v-2h5.5v2h-1.8v11h-1.9v-11H57.7z"/>
			<path class="st3" d="M63.8,109.4v-2h5.5v2h-1.8v11h-1.9v-11H63.8z"/>
			<path class="st3" d="M70.4,107.5h4.4v2h-2.5v3.4h1.8v2.1h-1.8v3.6h2.5v2h-4.4V107.5z"/>
			<path class="st3" d="M79.3,120.4l-1.2-8.1l-0.1-0.5h-0.1v8.7h-1.8v-13h2.3l1.1,5.9l0.1,0.7h0l0.1-0.7l1.1-5.9h2.3v13h-1.8v-8.7
				h-0.1l-0.1,0.5l-1.2,8.1H79.3z"/>
			<path class="st3" d="M85,107.5h1.9c0.8,0,1.7,0.2,2.3,0.8c0.6,0.6,1.1,1.6,1.1,3.1s-0.4,2.5-1.1,3.1c-0.6,0.6-1.5,0.8-2.3,0.8
				v5.2H85V107.5z M86.9,113.3c0.6,0,1-0.1,1.2-0.4c0.2-0.3,0.3-0.8,0.3-1.5s-0.1-1.2-0.3-1.6c-0.2-0.3-0.6-0.5-1.2-0.5V113.3z"/>
			<path class="st3" d="M90.9,109.4v-2h5.5v2h-1.8v11h-1.9v-11H90.9z"/>
			<path class="st3" d="M100.7,110.9c0-0.4,0-0.9-0.1-1.3c-0.1-0.4-0.3-0.6-0.6-0.6c-0.5,0-0.7,0.5-0.7,1.3c0,0.4,0.2,0.9,0.5,1.4
				s0.7,1,1,1.6c0.4,0.7,0.9,1.3,1.2,2c0.3,0.7,0.6,1.3,0.6,2c0,0.9-0.1,1.7-0.5,2.3c-0.4,0.6-1.1,1-2.1,1c-1.2,0-1.9-0.5-2.3-1.2
				c-0.4-0.7-0.5-1.6-0.5-2.6l1.9-0.2c0,0.5,0,1.1,0.2,1.5c0.1,0.4,0.3,0.7,0.7,0.7c0.6,0,0.8-0.6,0.8-1.4c0-0.4-0.2-0.9-0.5-1.4
				c-0.2-0.2-0.3-0.5-0.5-0.8c-0.4-0.5-0.8-1.1-1.2-1.8c-0.4-0.7-0.7-1.3-0.9-2c-0.1-0.3-0.2-0.7-0.2-1c0-0.7,0.2-1.5,0.6-2
				c0.4-0.6,1-1,1.9-1c1.1,0,1.8,0.5,2.2,1.1c0.4,0.7,0.5,1.6,0.5,2.3L100.7,110.9z"/>
		</g>
	</g>
	<path class="st4" d="M194.3,81.2c0,0-20.9,16.2-39.6,24s-43.8,15.1-43.8,15.1s40.8,3.1,55.6,1.4c14.9-1.7,28.2-3.5,34.8-9.3
		c0,0-27.4,3.1-42.9,1.4c0,0,21.8-10.8,29.7-19.3C195.6,86.3,194.3,83.5,194.3,81.2z"/>
	<path class="st5" d="M108.7,125.1c0,0,58.1-1.5,92.5-12.7c0,0-5.2,8.7-44.2,17.8c0,0,18.9,8.5,31.7,6.6
		C188.7,136.7,179.2,148.4,108.7,125.1z"/>
	<path class="st4" d="M106.8,129.5c0,0,50.6,11.2,81.9,7.1c0,0-10.4,7.5-41.7,6.4c0,0,3.1,7,20.7,11
		C167.6,154,145.4,157.5,106.8,129.5z"/>
	<path class="st5" d="M102.9,133.4c0,0,37.5,18,64.7,20.7c0,0-12.4,4.1-34-1.5c0,0,2.3,5.8,12.4,8.9
		C146,161.4,132.1,166.4,102.9,133.4z"/>
	<path class="st4" d="M96.7,135.3c0,0,29.4,22.6,49.3,26.1c0,0-13.9,1.5-28.2-6c0,0-0.2,5.2,4.4,7.9
		C122.2,163.3,113.2,168.1,96.7,135.3z"/>
	<path class="st5" d="M90.4,136.1c0,0,23.2,25.3,31.9,27.2c0,0-5.2,3.9-20.5-8.3c0,0-0.4,4.4,1.2,6.6
		C102.9,161.6,93.3,163.7,90.4,136.1z"/>
	<path class="st4" d="M83.6,134.9c0,0-4.8,12-4.8,15.3s3.7,6.2,3.7,6.2s0.6-5.2,2.7-7.5c0,0,5.4,10.4,17.8,12.7
		C102.9,161.6,90.2,150.9,83.6,134.9z"/>
	<path class="st5" d="M77.2,133.2c0,0-9.5,7-10.8,9.7c-1.4,2.7,0.2,5.4,0.2,5.4s2.7-4.6,5.6-6c0,0,1,10,10.2,14.1
		C82.4,156.4,76.3,140.7,77.2,133.2z"/>
	<path class="st4" d="M71.1,131.6c0,0-15.6,4.8-21.1,4.2c0,0,5.6,2.9,12,1.7c0,0-2.1,7,4.6,10.6C66.6,148.2,66.4,139,71.1,131.6z"/>
	<g>
		<path class="st3" d="M64.9,175.4v6.7H65l0.1-0.3l2.3-6.4h2.7l-2.6,6.3l2.9,12.8h-2.7l-1.9-8.3l-0.1-0.4h-0.1l-0.2,0.4l-0.7,1.6
			v6.8h-2.8v-19.1H64.9z"/>
		<path class="st3" d="M77.9,189.4v1.6c-0.1,1.4-0.5,2.3-1.4,3.1c-0.5,0.4-1.1,0.6-2,0.6c-1.7,0-2.5-0.9-3-1.9
			c-0.2-0.5-0.4-1.2-0.4-1.9v-7.2c0.1-1.4,0.5-2.4,1.5-3.2c0.4-0.4,1.1-0.6,1.9-0.6c1.7,0,2.5,0.9,3,1.8c0.2,0.5,0.4,1.1,0.4,1.8
			v4.1h-4.3v3.1c0,0.5,0.2,0.9,0.4,1.2c0.1,0.1,0.3,0.2,0.5,0.2c0.5,0,0.7-0.3,0.8-0.7c0.1-0.2,0.1-0.4,0.1-0.7v-1.6H77.9z
			 M73.6,185.8h1.9v-2c0-0.5-0.1-0.9-0.4-1.2c-0.1-0.1-0.3-0.2-0.6-0.2c-0.5,0-0.7,0.3-0.8,0.7c-0.1,0.2-0.1,0.4-0.1,0.7V185.8z"/>
		<path class="st3" d="M78.4,197.2c0,0,0.1,0,0.2,0c0.1,0,0.8,0.1,1.2-0.2c0.4-0.3,0.7-0.8,0.9-1.3c0.1-0.3,0.1-0.5,0.1-0.8
			l-2.4-14.6h2.6l1,8.7l0.1,0.7h0.1l0.1-0.7l1-8.7h2.6l-2.5,15.3c-0.1,1-0.5,2-1.1,2.8c-0.6,0.8-1.5,1.3-2.5,1.3c-0.1,0-0.2,0-0.3,0
			c-0.2,0-0.5,0-0.9-0.1V197.2z"/>
		<path class="st3" d="M86.6,175.4h2.6v5.8c0.4-0.4,0.8-0.7,1.4-1c0.2-0.1,0.5-0.2,0.7-0.2c0.7,0,1.2,0.4,1.6,0.9
			c0.3,0.5,0.5,1.2,0.5,1.8v9.1c0,0.6-0.2,1.3-0.5,1.8c-0.3,0.5-0.8,1-1.6,1c-0.5,0-1-0.3-1.4-0.6c-0.2-0.2-0.4-0.4-0.7-0.6v0.9
			h-2.6V175.4z M89.2,191.3c0,0.5,0.4,0.9,0.8,0.9c0.4,0,0.7-0.4,0.7-0.9v-8c0-0.5-0.3-0.9-0.7-0.9c-0.4,0-0.8,0.4-0.8,0.9V191.3z"
			/>
		<path class="st3" d="M101.3,191c-0.1,1.4-0.5,2.3-1.4,3.1c-0.5,0.4-1.1,0.6-2,0.6c-1.7,0-2.5-0.9-2.9-1.9
			c-0.2-0.5-0.4-1.2-0.4-1.9v-7.2c0.1-1.4,0.5-2.4,1.4-3.2c0.4-0.4,1.1-0.6,1.9-0.6c1.7,0,2.5,0.9,3,1.8c0.2,0.5,0.4,1.1,0.4,1.8
			V191z M98.8,183.8c0-0.5-0.1-0.9-0.3-1.2c-0.1-0.1-0.3-0.2-0.6-0.2c-0.5,0-0.7,0.3-0.8,0.7c-0.1,0.2-0.1,0.4-0.1,0.7v7.2
			c0,0.5,0.1,0.9,0.3,1.2c0.1,0.1,0.3,0.2,0.5,0.2c0.5,0,0.7-0.3,0.8-0.7c0.1-0.2,0.1-0.4,0.1-0.7V183.8z"/>
		<path class="st3" d="M106.5,183.6c0-0.2,0-0.6-0.1-0.9c-0.1-0.3-0.3-0.4-0.7-0.4c-0.4,0-0.6,0.3-0.7,0.8c0,0.2-0.1,0.4-0.1,0.7
			s0,0.5,0,0.7h-2.6v-0.6c0-1,0.4-2,1-2.7c0.6-0.7,1.5-1.1,2.5-1.1c0.9,0,1.6,0.3,2.2,0.9s1,1.4,1,2.3v8.7c0,1.3,0.1,1.8,0.2,2.5
			h-2.6c-0.2-0.3-0.2-1-0.2-1.1h-0.2c-0.1,0.2-0.4,0.6-0.7,0.9c-0.4,0.3-0.9,0.5-1.4,0.5c-0.3,0-0.9-0.1-1.3-0.7
			c-0.4-0.5-0.8-1.4-0.8-2.9c0-1.6,0.5-2.7,1.1-3.5c0.6-0.8,1.4-1.3,2.1-1.6s1.1-0.6,1.2-0.9V183.6z M106.5,187.6
			c-1.3,0.5-1.8,1.8-1.8,3.2c0,0.2,0,0.5,0.1,0.8c0.1,0.3,0.3,0.5,0.6,0.5c0.6,0,1.1-0.4,1.1-0.9V187.6z"/>
		<path class="st3" d="M115.5,183c-0.2-0.1-0.5-0.1-0.7-0.1c-0.4,0-0.9,0.1-1.3,0.4c-0.5,0.4-0.6,0.9-0.6,1.3v9.9h-2.6v-14.2h2.6
			v1.6c0-0.2,0.2-0.6,0.6-1c0.4-0.4,1-0.8,2-0.8V183z"/>
		<path class="st3" d="M122.8,194.5h-2.6v-0.9c-0.4,0.4-0.8,0.7-1.3,1c-0.3,0.1-0.5,0.2-0.8,0.2c-0.7,0-1.2-0.4-1.5-1
			c-0.3-0.5-0.5-1.2-0.5-1.8v-9.1c0-0.6,0.2-1.3,0.5-1.8c0.3-0.5,0.8-0.9,1.5-0.9c0.5,0,1,0.3,1.4,0.6c0.2,0.2,0.4,0.4,0.7,0.6v-5.8
			h2.6V194.5z M120.2,183.4c0-0.4-0.4-0.9-0.8-0.9s-0.7,0.4-0.7,0.9v8c0,0.5,0.3,0.9,0.7,0.9s0.8-0.4,0.8-0.9V183.4z"/>
		<path class="st3" d="M135.1,187.9v2.6c0,0.8-0.2,1.5-0.5,2.1c-0.2,0.5-0.6,1-1.1,1.4c-0.5,0.4-1.2,0.7-2.2,0.7s-1.7-0.2-2.2-0.7
			c-0.5-0.4-0.9-0.9-1.1-1.4c-0.3-0.6-0.4-1.3-0.5-2.1v-11.3c0-0.8,0.2-1.5,0.5-2.1c0.2-0.5,0.6-1,1.1-1.4c0.5-0.4,1.2-0.7,2.2-0.7
			s1.6,0.3,2.2,0.7c0.5,0.4,0.9,0.9,1.1,1.4c0.3,0.6,0.4,1.3,0.5,2.1v2.6h-2.6v-2.6c0-0.5-0.1-0.9-0.4-1.2c-0.1-0.1-0.4-0.2-0.6-0.2
			c-0.5,0-0.7,0.4-0.9,0.7c-0.1,0.2-0.1,0.4-0.1,0.7v11.3c0,0.5,0.2,0.9,0.4,1.2c0.1,0.1,0.3,0.2,0.5,0.2c0.6,0,0.8-0.3,1-0.7
			c0.1-0.2,0.1-0.4,0.1-0.7v-2.6H135.1z"/>
		<path class="st3" d="M141.6,183c-0.2-0.1-0.5-0.1-0.7-0.1c-0.4,0-0.9,0.1-1.3,0.4c-0.5,0.4-0.6,0.9-0.6,1.3v9.9h-2.6v-14.2h2.6
			v1.6c0-0.2,0.2-0.6,0.6-1c0.4-0.4,1-0.8,2-0.8V183z"/>
		<path class="st3" d="M146.2,180.2h2.6v14.2h-2.6v-1.2c-0.1,0-0.2,0.1-0.3,0.3c-0.3,0.3-0.7,0.7-1.1,0.9c-0.2,0.1-0.5,0.2-0.7,0.2
			c-0.7,0-1.2-0.4-1.5-1c-0.3-0.5-0.5-1.2-0.5-1.8v-11.6h2.6v11.3c0,0.5,0.3,0.6,0.6,0.6c0.3,0,0.4-0.2,0.6-0.3
			c0.1-0.1,0.2-0.2,0.2-0.3V180.2z"/>
		<path class="st3" d="M154.3,183.9c0-0.3,0-0.8-0.1-1.1c-0.1-0.3-0.3-0.6-0.8-0.6c-0.3,0-0.5,0.3-0.7,0.6c-0.1,0.3-0.2,0.8-0.2,1.1
			c0,0.4,0.2,0.9,0.6,1.3c0.3,0.4,0.7,0.8,1.1,1.2c0.5,0.5,1.2,1.2,1.6,1.9c0.4,0.7,0.8,1.5,0.8,2.5c0,0.9-0.2,1.9-0.7,2.6
			c-0.5,0.8-1.4,1.3-2.6,1.3c-1.6,0-2.5-0.7-3-1.6c-0.5-0.9-0.6-2-0.6-2.7h2.4c0,0.4,0,0.9,0.2,1.4c0.2,0.4,0.5,0.8,1,0.8
			c0.8,0,0.9-0.9,0.9-1.7c0-0.9-0.8-1.7-1.6-2.5c-0.6-0.6-1.2-1.1-1.7-1.8c-0.5-0.7-0.8-1.5-0.8-2.5c0-0.8,0.2-1.8,0.6-2.5
			c0.5-0.7,1.3-1.3,2.5-1.3c1.5,0,2.4,0.5,2.8,1.3c0.4,0.8,0.5,1.7,0.5,2.5H154.3z"/>
		<path class="st3" d="M160.4,194.5h-2.6v-19.1h2.6v6.1c0.1,0,0.2-0.1,0.3-0.3c0.3-0.3,0.7-0.7,1.1-0.9c0.2-0.1,0.4-0.2,0.7-0.2
			c0.7,0,1.2,0.4,1.5,0.9c0.3,0.5,0.5,1.2,0.5,1.8v11.6h-2.6v-11.3c0-0.5-0.3-0.6-0.6-0.6c-0.3,0-0.4,0.2-0.6,0.3
			c-0.1,0.1-0.2,0.2-0.2,0.3V194.5z"/>
		<path class="st3" d="M172.6,189.4v1.6c-0.1,1.4-0.5,2.3-1.4,3.1c-0.5,0.4-1.1,0.6-2,0.6c-1.7,0-2.5-0.9-3-1.9
			c-0.2-0.5-0.4-1.2-0.4-1.9v-7.2c0.1-1.4,0.5-2.4,1.5-3.2c0.4-0.4,1.1-0.6,1.9-0.6c1.7,0,2.5,0.9,3,1.8c0.2,0.5,0.4,1.1,0.4,1.8
			v4.1h-4.3v3.1c0,0.5,0.2,0.9,0.4,1.2c0.1,0.1,0.3,0.2,0.5,0.2c0.5,0,0.7-0.3,0.8-0.7c0.1-0.2,0.1-0.4,0.1-0.7v-1.6H172.6z
			 M168.3,185.8h1.9v-2c0-0.5-0.1-0.9-0.4-1.2c-0.1-0.1-0.3-0.2-0.6-0.2c-0.5,0-0.7,0.3-0.8,0.7c-0.1,0.2-0.1,0.4-0.1,0.7V185.8z"/>
		<path class="st3" d="M179.1,183c-0.2-0.1-0.5-0.1-0.7-0.1c-0.4,0-0.9,0.1-1.3,0.4c-0.5,0.4-0.6,0.9-0.6,1.3v9.9h-2.6v-14.2h2.6
			v1.6c0-0.2,0.2-0.6,0.6-1c0.4-0.4,1-0.8,2-0.8V183z"/>
	</g>
</g>
</svg>
