<?xml version="1.0" encoding="utf-8"?>
<!-- Generator: Adobe Illustrator 19.1.0, SVG Export Plug-In . SVG Version: 6.00 Build 0)  -->
<svg version="1.1" id="Layer_1" xmlns="http://www.w3.org/2000/svg" xmlns:xlink="http://www.w3.org/1999/xlink" x="0px" y="0px"
	 viewBox="0 0 232.1 232.1" style="enable-background:new 0 0 232.1 232.1;" xml:space="preserve">
<style type="text/css">
	.st0{fill:#F89300;}
	.st1{fill:#F2F2F2;}
	.st2{fill:#E6E6E6;}
	.st3{fill:#F7931E;}
	.st4{fill:#F25917;}
	.st5{fill:#666666;}
	.st6{fill:#FFFFFF;}
	.st7{fill:#4D4D4D;}
</style>
<g>
	<path class="st0" d="M116,232.1c-64,0-116-52-116-116S52,0,116,0s116,52,116,116S180,232.1,116,232.1z"/>
	<path class="st1" d="M220.3,116c0,10.5-1.5,20.6-4.4,30.2c-12.9,42.8-52.7,74.1-99.8,74.1c-57.6,0-104.2-46.7-104.2-104.2
		S58.5,11.8,116,11.8c51.3,0,93.9,37,102.6,85.8C219.7,103.6,220.3,109.7,220.3,116z"/>
	<g id="XMLID_6_">
		<g>
			<path class="st2" d="M15.7,116.2h100l-95.2,30.9C17.4,137.4,15.7,127,15.7,116.2z"/>
			<path class="st1" d="M20.6,147.1l95.2-30.9L34.8,175C28.7,166.6,23.9,157.2,20.6,147.1z"/>
			<path class="st2" d="M34.8,175l80.9-58.8h0v0L57,197.2C48.5,191,41,183.5,34.8,175z"/>
			<path class="st1" d="M57,197.2l58.8-80.9l-30.9,95.2C74.8,208.1,65.4,203.3,57,197.2z"/>
			<path class="st2" d="M84.9,211.4l30.9-95.2v100C105,216.3,94.6,214.6,84.9,211.4z"/>
			<path class="st1" d="M115.8,216.3v-100l30.9,95.2C137,214.6,126.6,216.3,115.8,216.3z"/>
			<path class="st2" d="M115.8,116.2L115.8,116.2L115.8,116.2L115.8,116.2l58.8,80.9c-8.4,6.1-17.8,11-27.9,14.2L115.8,116.2z"/>
			<polygon class="st2" points="115.8,116.2 115.8,116.2 115.8,116.2 			"/>
			<path class="st2" d="M115.8,116.2L115.8,116.2l100,0c0,10.8-1.7,21.2-4.9,30.9L115.8,116.2z"/>
			<path class="st1" d="M174.6,197.2l-58.8-80.9l80.9,58.8C190.6,183.5,183.1,191,174.6,197.2z"/>
			<path class="st2" d="M115.8,116.2l95.2,30.9c-3.3,10.1-8.1,19.5-14.2,27.9L115.8,116.2z"/>
		</g>
		<g>
		</g>
	</g>
	<path class="st3" d="M220.3,116c0,5-0.4,10-1.1,14.9c-0.7,5.2-1.9,10.3-3.4,15.3h-60.6c-3.9,0-7.3,2.8-8.1,6.6l-0.1,0.3
		c-0.7,2.3-3,4.1-3,4.1c-1.8,1.1-5,2.3-7.5,2.3h-25.7c-2.5,0-16.8,0.1-16.8,0.1V84.1h31.5c0.6,0,1.1-0.5,1.1-1.1c0-0.6-0.5-1-1.1-1
		h-12.2c-5.8,0.4-10.9-4.1-11.2-10c-0.3-6.2,4.7-9.8,10.9-9.8h23.2c7.3,0,13.3,6,13.3,13.3v19.1c0,1.7,1.3,3,3,3h66.1
		C219.7,103.6,220.3,109.7,220.3,116z"/>
	<g>
		<g>
			<path class="st4" d="M71.7,45c0,0,1.5,0.8,2.9,1.7c1.4,0.9,2.9,1.8,2.9,1.8s0.5-0.2,1.1-0.4c0.7-0.2,1.6-0.5,2.5-0.8
				c0.9-0.3,1.8-0.6,2.5-0.7c0.7-0.2,1.2-0.3,1.2-0.3s-0.9,1.6-1.6,3.2c-0.7,1.6-1.5,3.2-1.5,3.2s1,1.4,1.9,2.7
				c0.9,1.4,1.9,2.8,1.9,2.8s-0.4,0-1.1-0.1c-0.6-0.1-1.5-0.1-2.3-0.2c-0.9,0-1.7-0.1-2.4-0.1c-0.7,0-1.1,0-1.1,0s-1,1.3-2,2.7
				c-0.9,1.3-1.9,2.7-1.9,2.7s-0.6-1.4-1.1-2.9c-0.6-1.4-1.1-2.9-1.1-2.9s-0.4-0.1-1.1-0.2c-0.6-0.1-1.5-0.2-2.3-0.3
				c-1.7-0.1-3.4-0.2-3.4-0.2s1.4-1.3,2.8-2.5c1.5-1.2,3-2.4,3-2.4s0-0.4,0-1c0-0.6,0-1.5,0.1-2.3C71.7,46.8,71.7,45,71.7,45z"/>
		</g>
		<g>
			<path class="st4" d="M93.3,33.8c0,0,1.4,1.4,2.7,2.9c0.7,0.7,1.3,1.5,1.8,2c0.5,0.6,0.8,0.9,0.8,0.9s0.5,0,1.3-0.1
				c0.8,0,1.8-0.1,2.9-0.1c1.1,0,2.1,0,2.9,0c0.4,0,0.7,0,1,0c0.2,0,0.4,0,0.4,0s-0.3,0.4-0.8,1c-0.5,0.6-1.1,1.4-1.8,2.2
				c-0.6,0.8-1.2,1.6-1.7,2.1c-0.4,0.6-0.7,1-0.7,1s0.7,1.8,1.3,3.7c0.6,1.9,1.3,3.7,1.3,3.7s-0.4-0.2-1.1-0.4
				c-0.7-0.2-1.6-0.5-2.4-0.8c-0.9-0.3-1.8-0.6-2.5-0.8c-0.7-0.2-1.2-0.3-1.2-0.3s-0.4,0.3-0.9,0.8c-0.5,0.4-1.2,1.1-1.9,1.7
				c-0.7,0.6-1.3,1.3-1.8,1.7c-0.5,0.5-0.8,0.8-0.8,0.8s-0.3-1.9-0.6-3.7c-0.3-1.9-0.5-3.8-0.5-3.8s-1.7-0.8-3.6-1.6
				c-1.8-0.8-3.7-1.4-3.7-1.4s0.5-0.3,1.2-0.6c0.7-0.4,1.6-0.8,2.6-1.3c0.9-0.5,1.9-1,2.6-1.3c0.7-0.3,1.2-0.5,1.2-0.5
				s0.4-1.9,0.9-3.9C92.8,35.7,93.3,33.8,93.3,33.8z"/>
		</g>
		<g>
			<path class="st4" d="M117.2,26.3c0,0,0.3,0.6,0.8,1.4c0.4,0.8,1,2,1.6,3.1c1.1,2.3,2.2,4.5,2.2,4.5s0.6,0.1,1.6,0.3
				c1,0.2,2.2,0.5,3.5,0.8c1.3,0.3,2.5,0.6,3.5,0.9c0.9,0.3,1.6,0.4,1.6,0.4s-0.5,0.4-1.3,0.9c-0.8,0.6-1.8,1.3-2.8,2
				c-2,1.5-3.9,3.1-3.9,3.1s0.2,2.5,0.4,4.9c0.2,2.5,0.3,4.9,0.3,4.9s-0.5-0.3-1.2-0.8c-0.7-0.5-1.7-1.2-2.7-1.8
				c-1-0.6-2-1.2-2.7-1.7c-0.8-0.5-1.3-0.8-1.3-0.8s-2,1.1-4.1,2.3c-2,1.2-3.9,2.4-3.9,2.4s0.2-2.4,0.5-4.8c0.3-2.4,0.6-4.9,0.6-4.9
				s-0.5-0.4-1.2-1c-0.7-0.6-1.7-1.4-2.6-2.2c-1.9-1.5-4-3-4-3s0.6-0.2,1.6-0.4c1-0.2,2.2-0.6,3.5-0.8c1.3-0.2,2.6-0.5,3.5-0.7
				c1-0.2,1.6-0.3,1.6-0.3s1.1-2.2,2.3-4.4C115.9,28.5,117.2,26.3,117.2,26.3z"/>
		</g>
		<g>
			<path class="st4" d="M140.9,34.2c0,0,0.5,2,0.9,4c0.4,2,0.8,4,0.8,4s0.5,0.2,1.2,0.6c0.7,0.4,1.7,0.9,2.6,1.3
				c0.9,0.5,1.8,1,2.5,1.4c0.7,0.4,1.1,0.7,1.1,0.7s-0.5,0.2-1.2,0.4c-0.7,0.3-1.7,0.6-2.6,1c-0.9,0.4-1.8,0.8-2.5,1.1
				c-0.7,0.3-1.1,0.5-1.1,0.5s-0.3,1.9-0.6,3.8c-0.3,1.9-0.7,3.8-0.7,3.8s-0.3-0.3-0.8-0.8c-0.5-0.5-1.1-1.2-1.7-1.8
				c-0.7-0.7-1.3-1.3-1.8-1.8c-0.5-0.5-0.9-0.8-0.9-0.8s-0.5,0.1-1.2,0.3c-0.7,0.2-1.6,0.5-2.5,0.7c-0.9,0.3-1.8,0.6-2.5,0.8
				c-0.7,0.2-1.1,0.4-1.1,0.4s0.7-1.9,1.4-3.7c0.7-1.9,1.4-3.7,1.4-3.7s-0.3-0.4-0.7-1c-0.4-0.6-1-1.4-1.6-2.2
				c-0.6-0.8-1.2-1.6-1.7-2.2c-0.5-0.6-0.8-1-0.8-1s0.5,0,1.3,0c0.8,0,1.8,0.1,2.9,0.1c1.1,0.1,2.1,0.1,2.9,0.2
				c0.8,0.1,1.3,0.1,1.3,0.1s1.3-1.5,2.7-3C139.4,35.6,140.9,34.2,140.9,34.2z"/>
		</g>
		<g>
			<path class="st4" d="M162.2,46.2c0,0,0,1.8,0,3.5c0,1.7-0.1,3.4-0.1,3.4s1.5,1.2,2.9,2.6c0.7,0.6,1.4,1.3,1.9,1.8
				c0.5,0.5,0.9,0.8,0.9,0.8s-1.7,0-3.4,0.1c-1.7,0.1-3.4,0.3-3.4,0.3s-0.6,1.5-1.2,2.9c-0.6,1.4-1.2,2.8-1.2,2.8s-0.2-0.3-0.6-0.8
				c-0.3-0.5-0.8-1.2-1.3-1.9c-0.5-0.7-0.9-1.4-1.3-1.9c-0.4-0.5-0.6-0.9-0.6-0.9s-0.4,0-1.1,0c-0.7,0-1.5,0-2.4,0
				c-0.9,0-1.7,0.1-2.4,0.1c-0.6,0-1.1,0.1-1.1,0.1s1-1.4,2-2.8c1-1.4,2-2.8,2-2.8s-0.2-0.4-0.4-1c-0.3-0.6-0.6-1.4-0.9-2.2
				c-0.4-0.8-0.7-1.6-1-2.3c-0.3-0.6-0.5-1-0.5-1s0.5,0.1,1.1,0.3c0.7,0.2,1.6,0.5,2.5,0.8c0.9,0.3,1.8,0.6,2.5,0.9
				c0.7,0.3,1.1,0.4,1.1,0.4s1.4-0.9,2.9-1.8C160.7,47,162.2,46.2,162.2,46.2z"/>
		</g>
	</g>
	<path class="st4" d="M219.2,130.9c-0.7,5.2-1.9,10.3-3.4,15.3h-60.6c-3.9,0-7.3,2.8-8.1,6.6l-0.1,0.3c-0.7,2.3-3,4.1-3,4.1
		c-1.8,1.1-5,2.3-7.5,2.3h-25.7c-2.5,0-16.8,0.1-16.8,0.1v-28.8H219.2z"/>
	<g id="XMLID_3_">
		<g>
			<path class="st5" d="M117.9,88.2c18.4,0,33.4,15,33.4,33.4s-15,33.4-33.4,33.4s-33.4-15-33.4-33.4S99.5,88.2,117.9,88.2z
				 M144.8,121.5c0-14.8-12-26.8-26.8-26.8s-26.8,12-26.8,26.8s12,26.8,26.8,26.8S144.8,136.4,144.8,121.5z"/>
			<path class="st6" d="M117.9,94.7c14.8,0,26.8,12,26.8,26.8s-12,26.8-26.8,26.8s-26.8-12-26.8-26.8S103.1,94.7,117.9,94.7z"/>
		</g>
		<g>
		</g>
	</g>
	<g>
		<path class="st3" d="M94,102.2H80.9c-5,0-9.1-4.1-9.1-9.1s4.1-9.1,9.1-9.1H94c5,0,9.1,4.1,9.1,9.1S99,102.2,94,102.2z"/>
	</g>
	<g>
		<path class="st3" d="M94.4,121.2H77c-5,0-9.1-4.1-9.1-9.1c0-5,4.1-9.1,9.1-9.1h17.4c5,0,9.1,4.1,9.1,9.1
			C103.5,117.1,99.4,121.2,94.4,121.2z"/>
	</g>
	<g>
		<path class="st3" d="M94.4,140.6H80.6c-5,0-9.1-4.1-9.1-9.1c0-5,4.1-9.1,9.1-9.1h13.8c5,0,9.1,4.1,9.1,9.1
			C103.5,136.6,99.4,140.6,94.4,140.6z"/>
	</g>
	<g>
		<path class="st3" d="M93.8,159.7h-8.7c-5,0-9.1-4.1-9.1-9.1s4.1-9.1,9.1-9.1h8.7c5,0,9.1,4.1,9.1,9.1S98.9,159.7,93.8,159.7z"/>
	</g>
	<path class="st5" d="M115,88.4c0,0,0-2-0.8-3.3c-0.3-0.5-0.7-0.9-1.1-1.2c-0.5-0.4-0.6-1.1-0.2-1.6l1.4-1.7c0.4-0.5,1-0.8,1.7-0.8
		h3.8c0.7,0,1.3,0.3,1.7,0.8l1.4,1.7c0.4,0.5,0.3,1.3-0.2,1.6c-0.4,0.3-0.8,0.7-1.1,1.2c-0.7,1.3-0.8,3.3-0.8,3.3H115z"/>
	<g>
		<path class="st7" d="M118.1,119c0,0.5-0.1,1.5-0.6,2.5c-0.5,1-1.5,1.8-3.2,1.8c-1.8,0-2.7-0.8-3.2-1.8c-0.5-0.9-0.6-2-0.6-2.5
			v-11.2c0-0.7,0-1.9,0.5-2.9c0.5-1,1.4-1.8,3.2-1.8c1.8,0,2.7,0.8,3.2,1.8c0.5,1,0.5,2.2,0.5,2.9v1.2h-2.9c0-1.3,0-2.2-0.1-2.7
			s-0.3-0.7-0.8-0.7c-0.3,0-0.6,0.2-0.7,0.5c-0.1,0.3-0.2,0.9-0.2,1.6v3.5c0.5-0.3,0.9-0.5,1.4-0.5c1.5,0,2.3,0.8,2.7,1.7
			s0.5,2,0.5,2.5V119z M113.4,119.8c0,0.2,0.2,0.9,0.9,0.9c0.6,0,0.9-0.6,0.9-0.9v-5.9c0-0.2-0.3-0.9-0.9-0.9
			c-0.6,0-0.9,0.5-0.9,0.8V119.8z"/>
		<path class="st7" d="M126.9,119c0,0.8-0.2,1.5-0.5,2.1c-0.2,0.5-0.6,1-1.2,1.4c-0.5,0.4-1.3,0.7-2.2,0.7c-1,0-1.7-0.2-2.2-0.7
			c-0.5-0.4-0.9-0.9-1.1-1.4c-0.3-0.6-0.5-1.3-0.5-2.1v-11.6c0-0.8,0.2-1.5,0.5-2.1c0.2-0.5,0.6-1.1,1.1-1.5s1.3-0.7,2.2-0.7
			c1,0,1.7,0.3,2.2,0.7c0.5,0.4,0.9,0.9,1.2,1.5c0.3,0.6,0.5,1.3,0.5,2.1V119z M124,107.4c0-0.5-0.1-0.9-0.4-1.2
			c-0.1-0.1-0.3-0.2-0.6-0.2c-0.5,0-0.7,0.4-0.9,0.7c-0.1,0.2-0.1,0.5-0.1,0.7V119c0,0.6,0.1,0.9,0.4,1.2c0.1,0.1,0.3,0.2,0.6,0.2
			c0.5,0,0.8-0.3,0.9-0.7c0.1-0.2,0.1-0.4,0.1-0.7V107.4z"/>
		<path class="st7" d="M115.9,137.2h-1.4v-6.6c0-0.3-0.2-0.4-0.4-0.4s-0.3,0.1-0.4,0.2c-0.1,0.1-0.1,0.1-0.2,0.2v6.5h-1.5v-8.3h1.5
			v0.7c0,0,0.1-0.1,0.2-0.2c0.2-0.2,0.4-0.4,0.7-0.5c0.1-0.1,0.3-0.1,0.4-0.1c0.5,0,0.9,0.4,1,0.9c0.1,0,0.1-0.1,0.2-0.2
			c0.2-0.2,0.5-0.4,0.7-0.6c0.1-0.1,0.3-0.1,0.4-0.1c0.4,0,0.7,0.2,0.9,0.5c0.2,0.3,0.3,0.7,0.3,1.1v6.8h-1.4v-6.6
			c0-0.3-0.2-0.4-0.4-0.4s-0.3,0.1-0.4,0.2c-0.1,0.1-0.1,0.1-0.2,0.2V137.2z"/>
		<path class="st7" d="M119.2,126h1.5v1.5h-1.5V126z M119.2,137.2v-8.3h1.5v8.3H119.2z"/>
		<path class="st7" d="M123.2,137.2h-1.5v-8.3h1.5v0.7c0,0,0.1-0.1,0.2-0.2c0.2-0.2,0.4-0.4,0.7-0.5c0.1-0.1,0.3-0.1,0.4-0.1
			c0.4,0,0.7,0.2,0.9,0.5c0.2,0.3,0.3,0.7,0.3,1.1v6.8H124v-6.6c0-0.3-0.2-0.4-0.4-0.4c-0.2,0-0.3,0.1-0.4,0.2
			c0,0.1-0.1,0.1-0.1,0.2V137.2z"/>
	</g>
	<g>
		<path class="st5" d="M83.1,194.5l-1.8-12l-0.1-0.8h-0.2v12.8h-2.6v-19.1h3.4l1.7,8.7l0.1,1h0.1l0.1-1l1.7-8.7H89v19.1h-2.6v-12.8
			h-0.2l-0.1,0.8l-1.8,12H83.1z"/>
		<path class="st5" d="M94.5,183.6c0-0.2,0-0.6-0.1-0.9c-0.1-0.3-0.3-0.4-0.7-0.4c-0.4,0-0.6,0.3-0.7,0.8c0,0.2-0.1,0.4-0.1,0.7
			s0,0.5,0,0.7h-2.6v-0.6c0-1,0.4-2,1-2.7s1.5-1.1,2.5-1.1c0.9,0,1.6,0.3,2.2,0.9c0.6,0.6,1,1.4,1,2.3v8.7c0,1.3,0.1,1.8,0.2,2.5
			h-2.6c-0.2-0.3-0.2-1-0.2-1.1h-0.2c-0.1,0.2-0.4,0.6-0.7,0.9c-0.4,0.3-0.9,0.5-1.4,0.5c-0.3,0-0.9-0.1-1.3-0.6
			c-0.4-0.5-0.8-1.4-0.8-2.9c0-1.6,0.5-2.7,1.1-3.5c0.6-0.8,1.4-1.3,2.1-1.6c0.6-0.3,1.1-0.6,1.2-0.9V183.6z M94.5,187.6
			c-1.3,0.5-1.8,1.8-1.8,3.2c0,0.2,0,0.5,0.1,0.8c0.1,0.3,0.3,0.5,0.6,0.5c0.6,0,1.1-0.4,1.1-0.9V187.6z"/>
		<path class="st5" d="M103.6,182.9c-0.2-0.1-0.5-0.1-0.7-0.1c-0.4,0-0.9,0.1-1.3,0.4c-0.5,0.4-0.6,0.9-0.6,1.3v9.9h-2.6v-14.2h2.6
			v1.6c0-0.2,0.2-0.6,0.6-1c0.4-0.4,1-0.8,2-0.8V182.9z"/>
		<path class="st5" d="M108,183.6c0-0.2,0-0.6-0.1-0.9c-0.1-0.3-0.3-0.4-0.7-0.4c-0.4,0-0.6,0.3-0.7,0.8c0,0.2-0.1,0.4-0.1,0.7
			s0,0.5,0,0.7h-2.6v-0.6c0-1,0.4-2,1-2.7s1.5-1.1,2.5-1.1c0.9,0,1.6,0.3,2.2,0.9c0.6,0.6,1,1.4,1,2.3v8.7c0,1.3,0.1,1.8,0.2,2.5
			h-2.6c-0.2-0.3-0.2-1-0.2-1.1h-0.2c-0.1,0.2-0.4,0.6-0.7,0.9c-0.4,0.3-0.9,0.5-1.4,0.5c-0.3,0-0.9-0.1-1.3-0.6
			c-0.4-0.5-0.8-1.4-0.8-2.9c0-1.6,0.5-2.7,1.1-3.5c0.6-0.8,1.4-1.3,2.1-1.6c0.6-0.3,1.1-0.6,1.2-0.9V183.6z M108,187.6
			c-1.3,0.5-1.8,1.8-1.8,3.2c0,0.2,0,0.5,0.1,0.8c0.1,0.3,0.3,0.5,0.6,0.5c0.6,0,1.1-0.4,1.1-0.9V187.6z"/>
		<path class="st5" d="M114.9,176.7v3.5h1.8v2.4h-1.8v7.1c0,0.4,0,1,0.1,1.5c0.1,0.5,0.3,0.9,0.7,0.9c0.2,0,0.5,0,0.7-0.1
			c0.1,0,0.2,0,0.3-0.1v2.6c-0.1,0-0.3,0.1-0.4,0.1c-0.3,0.1-0.6,0.1-1,0.1c-1.5,0-2.3-0.8-2.6-1.8c-0.4-1-0.4-2.2-0.4-3v-7.3h-1.3
			v-2.4h1.3v-3.5H114.9z"/>
		<path class="st5" d="M120.2,194.5h-2.6v-19.1h2.6v6.1c0.1,0,0.2-0.1,0.3-0.3c0.3-0.3,0.7-0.7,1.1-0.9c0.2-0.1,0.4-0.2,0.7-0.2
			c0.7,0,1.2,0.4,1.5,0.9c0.3,0.5,0.5,1.2,0.5,1.8v11.6h-2.6v-11.3c0-0.5-0.3-0.6-0.6-0.6c-0.3,0-0.4,0.2-0.6,0.3
			c-0.1,0.1-0.2,0.2-0.2,0.3V194.5z"/>
		<path class="st5" d="M132.3,191c-0.1,1.4-0.5,2.3-1.4,3.1c-0.5,0.4-1.1,0.6-2,0.6c-1.7,0-2.5-0.9-2.9-1.9
			c-0.2-0.5-0.4-1.2-0.4-1.9v-7.2c0.1-1.4,0.5-2.4,1.4-3.2c0.4-0.4,1.1-0.6,2-0.6c1.7,0,2.5,0.9,3,1.8c0.2,0.5,0.4,1.1,0.4,1.8V191z
			 M129.8,183.8c0-0.5-0.1-0.9-0.3-1.2c-0.1-0.1-0.3-0.2-0.6-0.2c-0.5,0-0.7,0.3-0.8,0.7c-0.1,0.2-0.1,0.4-0.1,0.7v7.2
			c0,0.5,0.1,0.9,0.3,1.2c0.1,0.1,0.3,0.2,0.5,0.2c0.5,0,0.7-0.3,0.8-0.7c0.1-0.2,0.1-0.4,0.1-0.7V183.8z"/>
		<path class="st5" d="M136.2,194.5h-2.6v-14.2h2.6v1.2c0.1,0,0.2-0.1,0.3-0.3c0.3-0.3,0.7-0.7,1.1-0.9c0.2-0.1,0.4-0.2,0.7-0.2
			c0.7,0,1.2,0.4,1.5,0.9c0.3,0.5,0.5,1.2,0.5,1.8v11.6h-2.6v-11.3c0-0.5-0.3-0.6-0.6-0.6c-0.3,0-0.4,0.2-0.6,0.3
			c-0.1,0.1-0.2,0.2-0.2,0.3V194.5z"/>
		<path class="st5" d="M148.4,189.4v1.6c-0.1,1.4-0.5,2.3-1.4,3.1c-0.5,0.4-1.1,0.6-2,0.6c-1.7,0-2.5-0.9-3-1.9
			c-0.2-0.5-0.4-1.2-0.4-1.9v-7.2c0.1-1.4,0.5-2.4,1.5-3.2c0.4-0.4,1.1-0.6,2-0.6c1.7,0,2.5,0.9,3,1.8c0.2,0.5,0.4,1.1,0.4,1.8v4.1
			H144v3.1c0,0.5,0.2,0.9,0.4,1.2c0.1,0.1,0.3,0.2,0.5,0.2c0.5,0,0.7-0.3,0.8-0.7c0.1-0.2,0.1-0.4,0.1-0.7v-1.6H148.4z M144,185.8
			h1.9v-2c0-0.5-0.1-0.9-0.4-1.2c-0.1-0.1-0.3-0.2-0.6-0.2c-0.5,0-0.7,0.3-0.8,0.7c-0.1,0.2-0.1,0.4-0.1,0.7V185.8z"/>
		<path class="st5" d="M154.9,182.9c-0.2-0.1-0.5-0.1-0.7-0.1c-0.4,0-0.9,0.1-1.3,0.4c-0.5,0.4-0.6,0.9-0.6,1.3v9.9h-2.6v-14.2h2.6
			v1.6c0-0.2,0.2-0.6,0.6-1c0.4-0.4,1-0.8,2-0.8V182.9z"/>
	</g>
</g>
</svg>
