<?xml version="1.0" encoding="utf-8"?>
<!-- Generator: Adobe Illustrator 19.1.0, SVG Export Plug-In . SVG Version: 6.00 Build 0)  -->
<svg version="1.1" id="Layer_1" xmlns="http://www.w3.org/2000/svg" xmlns:xlink="http://www.w3.org/1999/xlink" x="0px" y="0px"
	 viewBox="0 0 232.1 232.1" style="enable-background:new 0 0 232.1 232.1;" xml:space="preserve">
<style type="text/css">
	.st0{fill:#A4A4A4;}
	.st1{fill:#F2F2F2;}
	.st2{fill:none;}
	.st3{fill:#818181;}
	.st4{fill:#666666;}
</style>
<g>
	<path class="st0" d="M116,232.1c-64,0-116-52-116-116S52,0,116,0s116,52,116,116S180,232.1,116,232.1z"/>
	<circle class="st1" cx="116" cy="116" r="104.2"/>
	<g>
		<path class="st0" d="M140.1,109.6L128,123.7c-0.4,0.5-1,0.7-1.5,0.7c-0.5,0-0.9-0.2-1.3-0.5c-0.8-0.7-0.9-2-0.2-2.8l11.6-13.5
			C137.8,108.2,139,108.9,140.1,109.6z"/>
	</g>
	<g>
		<g>
			<path class="st2" d="M101.3,143.7c1.8-0.8,24.5-4,24.5-4s-10.3-2.7-15.5-3.9c-0.9-0.2-2-0.2-2.8,0.6c-2,2.1-3.6,4.3-5.8,6.7l0,0
				C101.7,143.4,101.5,143.6,101.3,143.7z"/>
			<path class="st2" d="M160,132.1c1,0.3,2.1,0.6,3.1,0.9c0.6,0.2,0.8,0,0.6-0.6c-0.3-1.2-0.5-2.4-0.8-3.6c-0.1-0.2-0.1-0.5-0.5-0.5
				c-0.1,0.1-0.2,0.1-0.2,0.2c-0.8,1-1.7,1.9-2.5,2.9C159.3,131.8,159.6,132,160,132.1z"/>
			<path class="st2" d="M143.4,128.4c3.7,0.8,7.4,1.5,10.7,2.2c0.8,0.3,1.2,0.1,1.5-0.2c1.9-2.2,3.8-4.3,5.8-6.5
				c0.6-0.6,0.1-1.3-0.1-1.9c-0.2-0.7-0.8-0.2-1.2-0.1c-5.5,1.6-11,2.8-16.5,3.9c-0.4,0.1-1.3-0.1-1.2,0.6
				C142.4,127.2,142.4,128.2,143.4,128.4z"/>
			<path class="st2" d="M107.2,119.3l-2.6,0.5c0,0,2.1,7.1,3.1,10.2c0.1,0.2,0.1,0.6,0.5,0.6c0.8-0.1,2.4-2.7,2.1-3.5
				C109.4,124.9,107.2,119.3,107.2,119.3z"/>
			<path class="st2" d="M163.9,137.9c-3.7,0.8-12.5,2.4-12.5,2.4l-10.9,9.9l26.1-5.4c0,0-1-4.1-1.4-6.2
				C165,138,164.7,137.8,163.9,137.9z"/>
			<path class="st0" d="M82,85.3c-0.4-2.1-0.4-4.2-0.5-6.2c-0.4-9.7,0-19.3,2.6-28.8c1.2-4.6,3-9.1,6.2-12.5
				c0.2-0.3,0.4-0.5,0.6-0.7c-9.6,4.4-17.3,10.6-22.2,15.1c6-5.5,13-10.2,20.9-14C81.2,45.2,74,53.3,67.8,62.3
				c-6.1,8.8-11.3,18-15.5,28c3.3-1.7,8.3-3.9,14.7-4.9c6.3-1,11.7-0.6,15.3,0c1.1-0.7,2.2-1.5,3.5-2.3c-1,0.6-2.1,1.2-3.1,1.9
				C82.4,85.1,82.2,85.1,82,85.3z"/>
			<path class="st0" d="M49.4,87.6c0.9,0.3,1.7,1,2.2,1.9C51.1,88.3,50.4,87.7,49.4,87.6z"/>
			<path class="st0" d="M107.4,44.3c7.7,7.3,14,15.8,20.2,24.7c2.7-3.3,7.1-7.9,13.8-11.9c7-4.2,13.6-5.9,17.9-6.6
				c-17.5-11.4-36.6-17.8-57.9-16.1c4.1-2.5,22.6-3.5,34.6-1.7c11.1,1.7,21.7,5.2,32.1,9.8c-7.8-4-41.4-19.7-73.9-7
				c0.6,0.2,1.3,0.4,1.9,0.7C100.5,38.1,104,41.1,107.4,44.3z"/>
			<path class="st0" d="M127.5,69.2C127.6,69.1,127.6,69.1,127.5,69.2c-0.7,0-1.4,0.1-2.1,0.2C126.2,69.3,126.9,69.2,127.5,69.2z"/>
			<path class="st0" d="M159.7,50.4C159.7,50.4,159.7,50.4,159.7,50.4c0.3-1,1.1-2.9,3-4.6C161.2,46.8,160,48.1,159.7,50.4z"/>
			<path class="st0" d="M44.5,89c0-0.1,0.1-0.1,0.1-0.2c0,0-0.1,0-0.1,0C44.6,88.9,44.6,89,44.5,89z"/>
			<polygon class="st3" points="127.6,69.1 127.6,69.1 127.6,69.1 			"/>
			<path class="st3" d="M174.3,114.5c-0.4-1-1.4-1-2.3-0.8c-1.3,0.2-2.5,0.5-3.8,0.9c-8.2,2.9-16.5,5.6-24.9,8.2
				c-2.1,0.6-2.1,0.6-2.7-1.4c-0.6-1.9-1.8-5.6-1.8-5.6l-2.7,3.5c0,0,1.7,5.4,2.6,8.3c-0.6-0.3-0.9-0.6-1.2-0.6
				c-1.5,0.2-1.5-0.8-1.8-1.7c-0.6-2-1.2-4-1.8-6c-0.3-1.2-0.8-1.6-2.1-1.6c-8.1,0.2-16.1-0.9-23.8-3.4c-0.9-0.3-2.9-0.9-3.1-1
				c0.1,0.2,1.4,3.8,1.4,3.8l-2.5,0.5l-8.7-27.5l1.2,0.1c0,0,3.2,8.8,4.6,12.5c0.2,0.6,0.5,1.2,1.3,1.4c2.9,0.7,5.7,1.6,8.5,2.3
				c5.9,1.5,11.8,1.8,17.8,2c1.3,0,1.5-0.3,1-1.5c-1.5-3.9-4.3-13.4-4.3-13.4l2.6,0.2l5.8,18.2l2.5-3.4c-0.2-0.9-4.3-14.5-6.2-20.4
				c-0.5-1.7-1.5-2-3-1c-1,0.6-0.7,2.4-0.7,2.4s-11.6-1.3-11.6-1.3c0,0-6.1-15.6-6.1-15.6l-1.2,0.3c0,0,3.7,9.5,5.3,13.4
				c0.2,0.5,0.7,1.9,0.7,1.9l-18.7-1.5c0,0-1-0.4-1.2-1c-0.3-1-0.7-1.8-2.1-1.4c-1.4,0.5-2,1.5-1.6,2.7c1.9,5.8,12.8,39.2,14.6,44.7
				c0.4,1.3,0.3,2.5-0.6,3.6c-0.9,1-1.8,2-2.7,3.1c0.3-0.3,0.6-0.6,0.9-0.9c-0.1,1.9-0.2,3.8-0.3,5.7c2.1-2.4,3.8-4.6,5.8-6.7
				c0.7-0.8,1.8-0.8,2.8-0.6c5.1,1.2,15.5,3.9,15.5,3.9s-22.7,3.2-24.5,4c0.2-0.2,0.3-0.3,0.5-0.5c-3.5,3.6-7.1,7.1-10.7,10.7
				c-1.6,1.2-3.2,1.3-3.9,0.8c0.2,0.5,0.8,0.9,1.7,1.4c0.6,0.3,29.6,7.6,36.7,9c-0.2-0.1-0.3-0.2-0.5-0.3c-0.8-0.7-0.9-2-0.2-2.8
				l11.6-13.5c1.2,0.6,2.4,1.3,3.6,2L128,164.5c-0.2,0.2-0.4,0.3-0.6,0.5c5.8-2,38.1-17,40.3-16.8c0.2,2.3,1.8,2.3,2.6,1.8
				c0.7-0.5,1.7-1.1,0.8-1.7c-0.3-1.1-0.3-1.4-0.5-2.2c-0.6-2.6-1.2-5.2-1.9-7.8c-0.2-0.8-0.2-1.3,0.6-1.8c0.8-0.5,0.9-1.5,0.7-2.4
				c-0.2-0.8-0.8-1.2-1.6-1.2c-0.8,0.1-1-0.3-1.2-1c-0.5-2-1-4-1.5-6c-0.2-0.7-0.2-1.1,0.2-1.7c0.7-1,0.4-1.8-0.5-2.5
				c-0.3-0.2-0.9-0.2-0.9-0.7c0-0.6,0.7-0.6,1-0.7c2.6-1,5.2-2,7.6-3.4C173.9,116.2,174.7,115.6,174.3,114.5z M108.3,130.6
				c-0.4,0-0.5-0.3-0.5-0.6c-1-3.1-3.1-10.2-3.1-10.2l2.6-0.5c0,0,2.2,5.6,3.1,7.9C110.6,127.9,109,130.5,108.3,130.6z M162.4,128.3
				c0.4,0,0.4,0.3,0.5,0.5c0.3,1.2,0.5,2.4,0.8,3.6c0.1,0.6-0.1,0.8-0.6,0.6c-1-0.3-2.1-0.6-3.1-0.9c-0.4-0.1-0.7-0.3-0.3-0.7
				c0.8-1,1.7-1.9,2.5-2.9C162.2,128.4,162.3,128.3,162.4,128.3z M143.5,125.8c5.6-1,11.1-2.3,16.5-3.9c0.4-0.1,1-0.5,1.2,0.1
				c0.2,0.6,0.7,1.2,0.1,1.9c-1.9,2.2-3.8,4.3-5.8,6.5c-0.3,0.3-0.7,0.5-1.5,0.2c-3.3-0.7-7-1.4-10.7-2.2c-1-0.2-1.1-1.2-1.1-2
				C142.2,125.7,143.1,125.8,143.5,125.8z M165.1,138.7c0.4,2.1,1.4,6.2,1.4,6.2l-26.1,5.4l10.9-9.9c0,0,8.8-1.6,12.5-2.4
				C164.7,137.8,165,138,165.1,138.7z"/>
			<path class="st3" d="M94.3,35.5c-1.1-0.4-2.1-1-2.7-2.3c0,0-0.2,0-0.3-0.1c0,0.1-0.1,0.2-0.1,0.3c0.5,1.4,0.5,2.4-0.4,3.6
				c0.2-0.1,0.3-0.1,0.5-0.2C92.2,36.3,93.2,35.9,94.3,35.5z"/>
			<path class="st3" d="M125.5,69.3c0.7-0.1,1.4-0.2,2.1-0.3c0,0,0,0,0,0c-6.2-8.9-12.5-17.4-20.2-24.7c-3.4-3.2-6.9-6.3-11.3-8.1
				c-0.6-0.3-1.3-0.5-1.9-0.7c-1,0.4-2,0.8-3,1.3c-0.2,0.1-0.3,0.1-0.5,0.2c-0.2,0.2-0.4,0.5-0.6,0.7c-3.2,3.5-4.9,8-6.2,12.5
				c-2.6,9.4-2.9,19.1-2.6,28.8c0.1,2,0,4.1,0.5,6.2c0.3-0.1,0.5-0.2,0.6-0.3c1-0.7,2.1-1.3,3.1-1.9c4.8-3.1,11.1-6.4,18.7-9
				C112.4,71.2,119.7,69.9,125.5,69.3z"/>
			<path class="st3" d="M51.6,89.5c0.2,0.4,0.3,0.9,0.4,1.5c0.1-0.2,0.2-0.5,0.3-0.7c-0.1,0.1-0.2,0.1-0.3,0.2
				C51.8,90.1,51.7,89.8,51.6,89.5z"/>
			<path class="st3" d="M68.6,52.1C57.8,61.9,49.8,74.2,44.3,89c0.1,0,0.2-0.1,0.2-0.1c2.6-7.4,7.9-19.8,18.9-31.8
				C64.2,56.3,66,54.5,68.6,52.1z"/>
			<path class="st3" d="M44.7,88.9c0.9-0.3,1.7-0.7,2.4-0.9c0.9-0.3,1.6-0.4,2.2-0.4c-0.2-0.1-0.4-0.1-0.7-0.2
				C47.2,87.1,45.7,87.7,44.7,88.9z"/>
			<path class="st3" d="M89.5,38c-7.9,3.8-14.8,8.5-20.9,14c-2.6,2.4-4.4,4.3-5.1,5.1c-11,12-16.4,24.3-18.9,31.8c0,0,0.1,0,0.1,0
				c1-1.2,2.5-1.7,4-1.5c0.2,0,0.4,0.1,0.7,0.2c1.1,0.1,1.8,0.6,2.2,1.9c0.2,0.3,0.3,0.6,0.4,0.9c0.1-0.1,0.2-0.1,0.3-0.2
				c4.3-10,9.4-19.2,15.5-28C74,53.3,81.2,45.2,89.5,38z"/>
			<path class="st3" d="M159.6,50.7c0-0.1,0-0.2,0-0.3c-0.1,0-0.2,0-0.3,0.1C159.4,50.6,159.5,50.6,159.6,50.7z"/>
			<path class="st3" d="M101.4,34.4c21.3-1.6,40.4,4.7,57.9,16.1c0.1,0,0.2,0,0.3-0.1c0.4-2.3,1.5-3.7,3-4.6c0,0,0,0,0,0
				c2.6-2.3,5.5-2.7,6.5-2.8c-0.3-0.1-0.6-0.3-1-0.5c-10.4-4.6-21-8.2-32.1-9.8C124,30.9,105.5,31.9,101.4,34.4z"/>
			<path class="st0" d="M91.2,153.9c3.5-3.6,7.1-7.1,10.7-10.7l0,0c0.1-1.9,0.2-3.8,0.3-5.7c-0.3,0.3-0.6,0.6-0.9,0.9l-12.8,12.8
				c-1.3,1.2-1.8,2.7-1.3,3.3c0,0.1,0.1,0.1,0.1,0.1C87.9,155.2,89.6,155.1,91.2,153.9z"/>
			<path class="st0" d="M125.7,165c0.3,0.1,0.5,0.2,0.8,0.2c0.3,0,0.6-0.1,0.9-0.2c-0.4,0.2-0.8,0.2-0.9,0.2
				C126.3,165.1,126,165.1,125.7,165z"/>
			<path class="st0" d="M140.1,150.4c-1.1-0.7-2.3-1.4-3.6-2L125,161.9c-0.7,0.8-0.6,2.1,0.2,2.8c0.2,0.1,0.3,0.2,0.5,0.3
				c0.3,0.1,0.6,0.1,0.9,0.2c0.1,0,0.4-0.1,0.9-0.2c0.2-0.1,0.4-0.3,0.6-0.5L140.1,150.4z"/>
		</g>
		<g>
			<path class="st4" d="M77.5,194.3h-2.2l-2.6-19.1h2.6l1.1,9.9l0.1,0.6h0.2l0.1-0.6l1.2-9.9h2l1.2,9.9l0.1,0.6h0.2l0.1-0.6l1.1-9.9
				h2.6l-2.6,19.1h-2.2l-1.3-9l-0.2-1.1h-0.1l-0.2,1.1L77.5,194.3z"/>
			<path class="st4" d="M92.6,189.2v1.6c-0.1,1.4-0.5,2.3-1.4,3.1c-0.5,0.4-1.1,0.6-2,0.6c-1.7,0-2.5-0.9-3-1.9
				c-0.2-0.5-0.4-1.2-0.4-1.9v-7.2c0.1-1.4,0.5-2.4,1.5-3.2c0.4-0.4,1.1-0.6,2-0.6c1.7,0,2.5,0.9,3,1.8c0.2,0.5,0.4,1.1,0.4,1.8v4.1
				h-4.3v3.1c0,0.5,0.2,0.9,0.4,1.2c0.1,0.1,0.3,0.2,0.5,0.2c0.5,0,0.7-0.3,0.8-0.7c0.1-0.2,0.1-0.4,0.1-0.7v-1.6H92.6z M88.3,185.6
				h1.9v-2c0-0.5-0.1-0.9-0.4-1.2c-0.1-0.1-0.3-0.2-0.6-0.2c-0.5,0-0.7,0.3-0.8,0.7c-0.1,0.2-0.1,0.4-0.1,0.7V185.6z"/>
			<path class="st4" d="M100.5,189.2v1.6c-0.1,1.4-0.5,2.3-1.4,3.1c-0.5,0.4-1.1,0.6-2,0.6c-1.7,0-2.5-0.9-3-1.9
				c-0.2-0.5-0.4-1.2-0.4-1.9v-7.2c0.1-1.4,0.5-2.4,1.5-3.2c0.4-0.4,1.1-0.6,2-0.6c1.7,0,2.5,0.9,3,1.8c0.2,0.5,0.4,1.1,0.4,1.8v4.1
				h-4.3v3.1c0,0.5,0.2,0.9,0.4,1.2c0.1,0.1,0.3,0.2,0.5,0.2c0.5,0,0.7-0.3,0.8-0.7c0.1-0.2,0.1-0.4,0.1-0.7v-1.6H100.5z
				 M96.1,185.6H98v-2c0-0.5-0.1-0.9-0.4-1.2c-0.1-0.1-0.3-0.2-0.6-0.2c-0.5,0-0.7,0.3-0.8,0.7c-0.1,0.2-0.1,0.4-0.1,0.7V185.6z"/>
			<path class="st4" d="M104.4,175.1v9.1h0.1l0.2-0.5l1.3-3.7h2.4l-1.9,4.6l2.4,9.6h-2.5l-1.3-5.7l-0.1-0.2h-0.1l-0.1,0.2l-0.3,0.8
				v4.9h-2.6v-19.1H104.4z"/>
			<path class="st4" d="M115.8,189.2v1.6c-0.1,1.4-0.5,2.3-1.4,3.1c-0.5,0.4-1.1,0.6-2,0.6c-1.7,0-2.5-0.9-3-1.9
				c-0.2-0.5-0.4-1.2-0.4-1.9v-7.2c0.1-1.4,0.5-2.4,1.5-3.2c0.4-0.4,1.1-0.6,2-0.6c1.7,0,2.5,0.9,3,1.8c0.2,0.5,0.4,1.1,0.4,1.8v4.1
				h-4.3v3.1c0,0.5,0.2,0.9,0.4,1.2c0.1,0.1,0.3,0.2,0.5,0.2c0.5,0,0.7-0.3,0.8-0.7c0.1-0.2,0.1-0.4,0.1-0.7v-1.6H115.8z
				 M111.5,185.6h1.9v-2c0-0.5-0.1-0.9-0.4-1.2c-0.1-0.1-0.3-0.2-0.6-0.2c-0.5,0-0.7,0.3-0.8,0.7c-0.1,0.2-0.1,0.4-0.1,0.7V185.6z"
				/>
			<path class="st4" d="M119.7,194.3H117V180h2.6v1.2c0.1,0,0.2-0.1,0.3-0.3c0.3-0.3,0.7-0.7,1.1-0.9c0.2-0.1,0.4-0.2,0.7-0.2
				c0.7,0,1.2,0.4,1.5,0.9c0.3,0.5,0.5,1.2,0.5,1.8v11.6h-2.6V183c0-0.5-0.3-0.6-0.6-0.6c-0.3,0-0.4,0.2-0.6,0.3
				c-0.1,0.1-0.2,0.2-0.2,0.3V194.3z"/>
			<path class="st4" d="M131.9,194.3h-2.6v-0.9c-0.4,0.4-0.8,0.7-1.3,1c-0.3,0.1-0.5,0.2-0.8,0.2c-0.7,0-1.2-0.4-1.5-1
				c-0.3-0.5-0.5-1.2-0.5-1.8v-9.1c0-0.6,0.2-1.3,0.5-1.8c0.3-0.5,0.8-0.9,1.5-0.9c0.5,0,1,0.3,1.4,0.6c0.2,0.2,0.4,0.4,0.7,0.6
				v-5.8h2.6V194.3z M129.3,183.2c0-0.4-0.4-0.9-0.8-0.9c-0.4,0-0.7,0.4-0.7,0.9v8c0,0.5,0.3,0.9,0.7,0.9c0.4,0,0.8-0.4,0.8-0.9
				V183.2z"/>
			<path class="st4" d="M142,185.9h-2.2v8.3H137v-19.1h2.8v7.9h2.2v-7.9h2.8v19.1H142V185.9z"/>
			<path class="st4" d="M152.9,189.2v1.6c-0.1,1.4-0.5,2.3-1.4,3.1c-0.5,0.4-1.1,0.6-2,0.6c-1.7,0-2.5-0.9-3-1.9
				c-0.2-0.5-0.4-1.2-0.4-1.9v-7.2c0.1-1.4,0.5-2.4,1.5-3.2c0.4-0.4,1.1-0.6,2-0.6c1.7,0,2.5,0.9,3,1.8c0.2,0.5,0.4,1.1,0.4,1.8v4.1
				h-4.3v3.1c0,0.5,0.2,0.9,0.4,1.2c0.1,0.1,0.3,0.2,0.5,0.2c0.5,0,0.7-0.3,0.8-0.7c0.1-0.2,0.1-0.4,0.1-0.7v-1.6H152.9z
				 M148.6,185.6h1.9v-2c0-0.5-0.1-0.9-0.4-1.2c-0.1-0.1-0.3-0.2-0.6-0.2c-0.5,0-0.7,0.3-0.8,0.7c-0.1,0.2-0.1,0.4-0.1,0.7V185.6z"
				/>
			<path class="st4" d="M159.4,182.7c-0.2-0.1-0.5-0.1-0.7-0.1c-0.4,0-0.9,0.1-1.3,0.4c-0.5,0.4-0.6,0.9-0.6,1.3v9.9h-2.6V180h2.6
				v1.6c0-0.2,0.2-0.6,0.6-1c0.4-0.4,1-0.8,2-0.8V182.7z"/>
			<path class="st4" d="M166.4,190.8c-0.1,1.4-0.5,2.3-1.4,3.1c-0.5,0.4-1.1,0.6-2,0.6c-1.7,0-2.5-0.9-2.9-1.9
				c-0.2-0.5-0.4-1.2-0.4-1.9v-7.2c0.1-1.4,0.5-2.4,1.4-3.2c0.4-0.4,1.1-0.6,2-0.6c1.7,0,2.5,0.9,3,1.8c0.2,0.5,0.4,1.1,0.4,1.8
				V190.8z M163.9,183.6c0-0.5-0.1-0.9-0.3-1.2c-0.1-0.1-0.3-0.2-0.6-0.2c-0.5,0-0.7,0.3-0.8,0.7c-0.1,0.2-0.1,0.4-0.1,0.7v7.2
				c0,0.5,0.1,0.9,0.3,1.2c0.1,0.1,0.3,0.2,0.5,0.2c0.5,0,0.7-0.3,0.8-0.7c0.1-0.2,0.1-0.4,0.1-0.7V183.6z"/>
		</g>
	</g>
</g>
</svg>
